<mxfile host="app.diagrams.net" modified="2023-04-28T14:03:39.529Z" agent="Mozilla/5.0 (Windows NT 10.0; Win64; x64) AppleWebKit/537.36 (KHTML, like Gecko) Chrome/112.0.0.0 Safari/537.36" etag="tZEk7AxoeqHOnOv_b2x3" version="21.1.8" type="device">
  <diagram name="Page-1" id="PURGBIhyTsq9zuF5PKZu">
    <mxGraphModel dx="1434" dy="756" grid="1" gridSize="10" guides="1" tooltips="1" connect="1" arrows="1" fold="1" page="1" pageScale="1" pageWidth="850" pageHeight="1100" math="0" shadow="0">
      <root>
        <mxCell id="0" />
        <mxCell id="1" parent="0" />
        <mxCell id="1hVDFRVHjGqYQZjkcz3B-8" style="edgeStyle=orthogonalEdgeStyle;rounded=0;orthogonalLoop=1;jettySize=auto;html=1;exitX=0.5;exitY=1;exitDx=0;exitDy=0;exitPerimeter=0;entryX=0.5;entryY=0;entryDx=0;entryDy=0;fontSize=16;" parent="1" source="1hVDFRVHjGqYQZjkcz3B-2" target="1hVDFRVHjGqYQZjkcz3B-5" edge="1">
          <mxGeometry relative="1" as="geometry" />
        </mxCell>
        <mxCell id="1hVDFRVHjGqYQZjkcz3B-2" value="Start" style="strokeWidth=2;html=1;shape=mxgraph.flowchart.start_1;whiteSpace=wrap;fontSize=16;" parent="1" vertex="1">
          <mxGeometry x="315" y="150" width="100" height="60" as="geometry" />
        </mxCell>
        <mxCell id="1hVDFRVHjGqYQZjkcz3B-16" style="edgeStyle=orthogonalEdgeStyle;rounded=0;orthogonalLoop=1;jettySize=auto;html=1;exitX=0.5;exitY=1;exitDx=0;exitDy=0;entryX=0.5;entryY=0;entryDx=0;entryDy=0;fontSize=16;" parent="1" source="1hVDFRVHjGqYQZjkcz3B-4" target="1hVDFRVHjGqYQZjkcz3B-15" edge="1">
          <mxGeometry relative="1" as="geometry" />
        </mxCell>
        <mxCell id="1hVDFRVHjGqYQZjkcz3B-4" value="Continue?" style="html=1;strokeWidth=2;shape=manualInput;whiteSpace=wrap;rounded=1;size=13;arcSize=11;fontSize=16;" parent="1" vertex="1">
          <mxGeometry x="300.25" y="580" width="120" height="70" as="geometry" />
        </mxCell>
        <mxCell id="1hVDFRVHjGqYQZjkcz3B-11" style="edgeStyle=orthogonalEdgeStyle;rounded=0;orthogonalLoop=1;jettySize=auto;html=1;exitX=0.5;exitY=1;exitDx=0;exitDy=0;entryX=0.5;entryY=0;entryDx=0;entryDy=0;fontSize=16;" parent="1" source="1hVDFRVHjGqYQZjkcz3B-5" target="1hVDFRVHjGqYQZjkcz3B-10" edge="1">
          <mxGeometry relative="1" as="geometry" />
        </mxCell>
        <mxCell id="1hVDFRVHjGqYQZjkcz3B-5" value="&lt;font style=&quot;font-size: 16px;&quot;&gt;Load&amp;nbsp;&lt;br style=&quot;font-size: 16px;&quot;&gt;Data&lt;/font&gt;" style="shape=parallelogram;html=1;strokeWidth=2;perimeter=parallelogramPerimeter;whiteSpace=wrap;rounded=1;arcSize=12;size=0.23;fontSize=16;" parent="1" vertex="1">
          <mxGeometry x="315" y="240" width="100" height="60" as="geometry" />
        </mxCell>
        <mxCell id="1hVDFRVHjGqYQZjkcz3B-9" style="edgeStyle=orthogonalEdgeStyle;rounded=0;orthogonalLoop=1;jettySize=auto;html=1;exitX=0;exitY=0.5;exitDx=0;exitDy=0;entryX=1;entryY=0.5;entryDx=0;entryDy=0;fontSize=16;" parent="1" source="1hVDFRVHjGqYQZjkcz3B-7" target="1hVDFRVHjGqYQZjkcz3B-5" edge="1">
          <mxGeometry relative="1" as="geometry">
            <Array as="points">
              <mxPoint x="480" y="190" />
              <mxPoint x="480" y="270" />
            </Array>
          </mxGeometry>
        </mxCell>
        <mxCell id="1hVDFRVHjGqYQZjkcz3B-7" value="EXAMPLE DATA:&lt;br style=&quot;font-size: 16px;&quot;&gt;&lt;br style=&quot;font-size: 16px;&quot;&gt;Increment Amount = 45&lt;br style=&quot;font-size: 16px;&quot;&gt;MIN_X, MIN_Y = 0&lt;br style=&quot;font-size: 16px;&quot;&gt;MAX_X = 512&lt;br style=&quot;font-size: 16px;&quot;&gt;MAX_Y = 424" style="rounded=1;whiteSpace=wrap;html=1;absoluteArcSize=1;arcSize=14;strokeWidth=2;fontSize=16;" parent="1" vertex="1">
          <mxGeometry x="520" y="100" width="130" height="180" as="geometry" />
        </mxCell>
        <mxCell id="1hVDFRVHjGqYQZjkcz3B-19" style="edgeStyle=orthogonalEdgeStyle;rounded=0;orthogonalLoop=1;jettySize=auto;html=1;exitX=0.5;exitY=1;exitDx=0;exitDy=0;entryX=0.5;entryY=0;entryDx=0;entryDy=0;entryPerimeter=0;fontSize=16;" parent="1" source="1hVDFRVHjGqYQZjkcz3B-10" target="1hVDFRVHjGqYQZjkcz3B-18" edge="1">
          <mxGeometry relative="1" as="geometry" />
        </mxCell>
        <mxCell id="1hVDFRVHjGqYQZjkcz3B-10" value="Initialise Kinect&lt;br style=&quot;font-size: 16px;&quot;&gt;Systems" style="rounded=1;whiteSpace=wrap;html=1;absoluteArcSize=1;arcSize=14;strokeWidth=2;fontSize=16;" parent="1" vertex="1">
          <mxGeometry x="290" y="330" width="150" height="60" as="geometry" />
        </mxCell>
        <mxCell id="1hVDFRVHjGqYQZjkcz3B-14" style="edgeStyle=orthogonalEdgeStyle;rounded=0;orthogonalLoop=1;jettySize=auto;html=1;exitX=0.5;exitY=1;exitDx=0;exitDy=0;entryX=0.5;entryY=0;entryDx=0;entryDy=0;fontSize=16;" parent="1" source="1hVDFRVHjGqYQZjkcz3B-12" target="1hVDFRVHjGqYQZjkcz3B-4" edge="1">
          <mxGeometry relative="1" as="geometry" />
        </mxCell>
        <mxCell id="1hVDFRVHjGqYQZjkcz3B-12" value="CURRENT_ANGLE = 0" style="rounded=1;whiteSpace=wrap;html=1;absoluteArcSize=1;arcSize=14;strokeWidth=2;fontSize=16;" parent="1" vertex="1">
          <mxGeometry x="260" y="510" width="210" height="50" as="geometry" />
        </mxCell>
        <mxCell id="1hVDFRVHjGqYQZjkcz3B-22" style="edgeStyle=orthogonalEdgeStyle;rounded=0;orthogonalLoop=1;jettySize=auto;html=1;exitX=0.5;exitY=1;exitDx=0;exitDy=0;entryX=0.5;entryY=0;entryDx=0;entryDy=0;fontSize=16;" parent="1" source="1hVDFRVHjGqYQZjkcz3B-15" target="1hVDFRVHjGqYQZjkcz3B-21" edge="1">
          <mxGeometry relative="1" as="geometry" />
        </mxCell>
        <mxCell id="1hVDFRVHjGqYQZjkcz3B-15" value="Collect Depth&lt;br style=&quot;font-size: 16px;&quot;&gt;Image Data" style="rounded=1;whiteSpace=wrap;html=1;absoluteArcSize=1;arcSize=14;strokeWidth=2;fontSize=16;" parent="1" vertex="1">
          <mxGeometry x="303.25" y="680" width="115" height="60" as="geometry" />
        </mxCell>
        <mxCell id="1hVDFRVHjGqYQZjkcz3B-25" style="edgeStyle=orthogonalEdgeStyle;rounded=0;orthogonalLoop=1;jettySize=auto;html=1;exitX=0.5;exitY=1;exitDx=0;exitDy=0;entryX=0.5;entryY=0;entryDx=0;entryDy=0;fontSize=16;" parent="1" source="1hVDFRVHjGqYQZjkcz3B-17" target="1hVDFRVHjGqYQZjkcz3B-24" edge="1">
          <mxGeometry relative="1" as="geometry" />
        </mxCell>
        <mxCell id="1hVDFRVHjGqYQZjkcz3B-17" value="Convert Depth Image to 3D Vector Pointcloud." style="rounded=1;whiteSpace=wrap;html=1;absoluteArcSize=1;arcSize=14;strokeWidth=2;fontSize=16;" parent="1" vertex="1">
          <mxGeometry x="290.75" y="840" width="140" height="60" as="geometry" />
        </mxCell>
        <mxCell id="1hVDFRVHjGqYQZjkcz3B-20" style="edgeStyle=orthogonalEdgeStyle;rounded=0;orthogonalLoop=1;jettySize=auto;html=1;exitX=0.5;exitY=1;exitDx=0;exitDy=0;exitPerimeter=0;entryX=0.5;entryY=0;entryDx=0;entryDy=0;fontSize=16;" parent="1" source="1hVDFRVHjGqYQZjkcz3B-18" target="1hVDFRVHjGqYQZjkcz3B-12" edge="1">
          <mxGeometry relative="1" as="geometry" />
        </mxCell>
        <mxCell id="1hVDFRVHjGqYQZjkcz3B-18" value="Wait until Kinect&amp;nbsp;&lt;br style=&quot;font-size: 16px;&quot;&gt;Subsystems Initialised" style="strokeWidth=2;html=1;shape=mxgraph.flowchart.delay;whiteSpace=wrap;fontSize=16;" parent="1" vertex="1">
          <mxGeometry x="290" y="410" width="152" height="80" as="geometry" />
        </mxCell>
        <mxCell id="1hVDFRVHjGqYQZjkcz3B-23" style="edgeStyle=orthogonalEdgeStyle;rounded=0;orthogonalLoop=1;jettySize=auto;html=1;exitX=0.5;exitY=1;exitDx=0;exitDy=0;entryX=0.5;entryY=0;entryDx=0;entryDy=0;fontSize=16;" parent="1" source="1hVDFRVHjGqYQZjkcz3B-21" target="1hVDFRVHjGqYQZjkcz3B-17" edge="1">
          <mxGeometry relative="1" as="geometry" />
        </mxCell>
        <mxCell id="1hVDFRVHjGqYQZjkcz3B-21" value="Void Pixel Data&lt;br style=&quot;font-size: 16px;&quot;&gt;Outside Min/Max X and Y Bounds." style="rounded=1;whiteSpace=wrap;html=1;absoluteArcSize=1;arcSize=14;strokeWidth=2;fontSize=16;" parent="1" vertex="1">
          <mxGeometry x="265.75" y="760" width="190" height="60" as="geometry" />
        </mxCell>
        <mxCell id="1hVDFRVHjGqYQZjkcz3B-27" style="edgeStyle=orthogonalEdgeStyle;rounded=0;orthogonalLoop=1;jettySize=auto;html=1;exitX=0.5;exitY=1;exitDx=0;exitDy=0;entryX=0.5;entryY=0;entryDx=0;entryDy=0;fontSize=16;" parent="1" source="1hVDFRVHjGqYQZjkcz3B-24" target="1hVDFRVHjGqYQZjkcz3B-26" edge="1">
          <mxGeometry relative="1" as="geometry" />
        </mxCell>
        <mxCell id="1hVDFRVHjGqYQZjkcz3B-24" value="Rotate Pointcloud&lt;br style=&quot;font-size: 16px;&quot;&gt;based on&lt;br style=&quot;font-size: 16px;&quot;&gt;CURRENT_ANGLE" style="rounded=1;whiteSpace=wrap;html=1;absoluteArcSize=1;arcSize=14;strokeWidth=2;fontSize=16;" parent="1" vertex="1">
          <mxGeometry x="272.25" y="920" width="175" height="90" as="geometry" />
        </mxCell>
        <mxCell id="1hVDFRVHjGqYQZjkcz3B-29" style="edgeStyle=orthogonalEdgeStyle;rounded=0;orthogonalLoop=1;jettySize=auto;html=1;exitX=0.5;exitY=1;exitDx=0;exitDy=0;entryX=0.5;entryY=0;entryDx=0;entryDy=0;fontSize=16;" parent="1" source="1hVDFRVHjGqYQZjkcz3B-26" target="1hVDFRVHjGqYQZjkcz3B-28" edge="1">
          <mxGeometry relative="1" as="geometry" />
        </mxCell>
        <mxCell id="1hVDFRVHjGqYQZjkcz3B-26" value="Save Pointcloud, as PLY." style="shape=parallelogram;html=1;strokeWidth=2;perimeter=parallelogramPerimeter;whiteSpace=wrap;rounded=1;arcSize=12;size=0.23;fontSize=16;" parent="1" vertex="1">
          <mxGeometry x="230" y="1030" width="259.5" height="70" as="geometry" />
        </mxCell>
        <mxCell id="1hVDFRVHjGqYQZjkcz3B-31" style="edgeStyle=orthogonalEdgeStyle;rounded=0;orthogonalLoop=1;jettySize=auto;html=1;exitX=0.5;exitY=1;exitDx=0;exitDy=0;entryX=0.5;entryY=0;entryDx=0;entryDy=0;entryPerimeter=0;fontSize=16;" parent="1" source="1hVDFRVHjGqYQZjkcz3B-28" target="1hVDFRVHjGqYQZjkcz3B-30" edge="1">
          <mxGeometry relative="1" as="geometry" />
        </mxCell>
        <mxCell id="1hVDFRVHjGqYQZjkcz3B-28" value="Add Increment Amount to CURRENT_ANGLE&amp;nbsp;" style="rounded=1;whiteSpace=wrap;html=1;absoluteArcSize=1;arcSize=14;strokeWidth=2;fontSize=16;" parent="1" vertex="1">
          <mxGeometry x="244.75" y="1110" width="230" height="50" as="geometry" />
        </mxCell>
        <mxCell id="1hVDFRVHjGqYQZjkcz3B-34" style="edgeStyle=orthogonalEdgeStyle;rounded=0;orthogonalLoop=1;jettySize=auto;html=1;exitX=0.5;exitY=1;exitDx=0;exitDy=0;exitPerimeter=0;entryX=0.5;entryY=0;entryDx=0;entryDy=0;entryPerimeter=0;fontSize=16;" parent="1" source="1hVDFRVHjGqYQZjkcz3B-30" target="1hVDFRVHjGqYQZjkcz3B-33" edge="1">
          <mxGeometry relative="1" as="geometry" />
        </mxCell>
        <mxCell id="BzQcNIwJmL7wxrDzAx7G-2" style="edgeStyle=orthogonalEdgeStyle;rounded=0;orthogonalLoop=1;jettySize=auto;html=1;exitX=1;exitY=0.5;exitDx=0;exitDy=0;exitPerimeter=0;entryX=1;entryY=0.5;entryDx=0;entryDy=0;" edge="1" parent="1" source="1hVDFRVHjGqYQZjkcz3B-30" target="1hVDFRVHjGqYQZjkcz3B-4">
          <mxGeometry relative="1" as="geometry">
            <Array as="points">
              <mxPoint x="535.25" y="1250" />
              <mxPoint x="535.25" y="615" />
            </Array>
          </mxGeometry>
        </mxCell>
        <mxCell id="1hVDFRVHjGqYQZjkcz3B-30" value="CURRENT_ANGLE&lt;br style=&quot;font-size: 16px;&quot;&gt;is 360" style="strokeWidth=2;html=1;shape=mxgraph.flowchart.decision;whiteSpace=wrap;fontSize=16;" parent="1" vertex="1">
          <mxGeometry x="265.25" y="1180" width="184.88" height="150" as="geometry" />
        </mxCell>
        <mxCell id="1hVDFRVHjGqYQZjkcz3B-33" value="End" style="strokeWidth=2;html=1;shape=mxgraph.flowchart.terminator;whiteSpace=wrap;fontSize=16;" parent="1" vertex="1">
          <mxGeometry x="320.44" y="1350" width="74.5" height="30" as="geometry" />
        </mxCell>
      </root>
    </mxGraphModel>
  </diagram>
</mxfile>
